<?xml version="1.0" encoding="UTF-8" standalone="no"?>
<svg
   xmlns:dc="http://purl.org/dc/elements/1.1/"
   xmlns:cc="http://creativecommons.org/ns#"
   xmlns:rdf="http://www.w3.org/1999/02/22-rdf-syntax-ns#"
   xmlns:svg="http://www.w3.org/2000/svg"
   xmlns="http://www.w3.org/2000/svg"
   xmlns:sodipodi="http://sodipodi.sourceforge.net/DTD/sodipodi-0.dtd"
   xmlns:inkscape="http://www.inkscape.org/namespaces/inkscape"
   height="24"
   viewBox="0 0 24 24"
   width="24"
   version="1.1"
   id="svg14"
   sodipodi:docname="store-24px.svg"
   inkscape:version="1.0.1 (c497b03c, 2020-09-10)">
  <metadata
     id="metadata20">
    <rdf:RDF>
      <cc:Work
         rdf:about="">
        <dc:format>image/svg+xml</dc:format>
        <dc:type
           rdf:resource="http://purl.org/dc/dcmitype/StillImage" />
      </cc:Work>
    </rdf:RDF>
  </metadata>
  <defs
     id="defs18" />
  <sodipodi:namedview
     pagecolor="#ffffff"
     bordercolor="#666666"
     borderopacity="1"
     objecttolerance="10"
     gridtolerance="10"
     guidetolerance="10"
     inkscape:pageopacity="0"
     inkscape:pageshadow="2"
     inkscape:window-width="1349"
     inkscape:window-height="692"
     id="namedview16"
     showgrid="false"
     inkscape:zoom="13.73025"
     inkscape:cx="11.015286"
     inkscape:cy="10.612036"
     inkscape:window-x="0"
     inkscape:window-y="25"
     inkscape:window-maximized="0"
     inkscape:current-layer="svg14" />
  <path
     d="M0 0h24v24H0z"
     fill="none"
     id="path10" />
  <path
     d="M20 4H4v2h16V4zm1 10v-2l-1-5H4l-1 5v2h1v6h10v-6h4v6h2v-6h1zm-9 4H6v-4h6v4z"
     id="path12" />
  <path
     style="fill:#ffffff;fill-opacity:1;stroke-width:0.0728319"
     d="M 4.023425,16.948409 V 13.962302 H 3.5136018 3.0037786 v -0.895138 c 0,-0.817501 0.044218,-1.115719 0.5098232,-3.4383589 C 3.7940046,8.2300342 4.023425,7.076065 4.023425,7.0644292 c 0,-0.011636 3.5887911,-0.021156 7.975091,-0.021156 4.3863,0 7.975092,0.00952 7.975092,0.021156 0,0.011636 0.22942,1.165605 0.509823,2.5643759 0.465604,2.3226399 0.509823,2.6208579 0.509823,3.4383589 v 0.895138 h -0.509823 -0.509823 v 2.986107 2.986108 h -0.983231 -0.98323 v -2.986108 -2.986107 h -2.039293 -2.039293 v 2.986107 2.986108 H 8.9759931 4.023425 Z m 8.011507,-0.946814 V 13.962302 H 9.012409 5.9898859 v 2.039293 2.039293 h 3.0225231 3.022523 z"
     id="path22" />
  <path
     style="fill:#ffffff;fill-opacity:1;stroke-width:0.0728319"
     d="M 4.023425,5.0039805 V 4.057166 h 7.975091 7.975092 V 5.0039805 5.950795 H 11.998516 4.023425 Z"
     id="path24" />
</svg>
