<svg xmlns="http://www.w3.org/2000/svg" height="24" width="24"><path d="M0 0h24v24H0z" fill="none"/><path d="M20 4H4v2h16V4zm1 10v-2l-1-5H4l-1 5v2h1v6h10v-6h4v6h2v-6h1zm-9 4H6v-4h6v4z"/><path d="M4.023 16.948v-2.986h-1.02v-.895c0-.817.045-1.116.51-3.438.281-1.399.51-2.553.51-2.565 0-.011 3.59-.02 7.976-.02s7.975.009 7.975.02c0 .012.229 1.166.51 2.565.465 2.322.51 2.62.51 3.438v.895h-1.02V19.935h-1.967V13.962H13.93V19.935H4.023zm8.012-.946v-2.04H5.99V18.041h6.045zM4.023 5.004v-.947h15.951v1.894H4.023z" fill="#fff"/></svg>